<svg xmlns="http://www.w3.org/2000/svg" viewBox="0 0 288 42.2"><path d="m98.2 6.9h5.6l4.2 19.4 4-19.4h5l4 19.4 4.2-19.4h5.6l-6.8 28.4h-5.7l-3.9-18.9-3.9 18.9h-5.7z" fill="#102442"></path><path d="m131.6 27.3v-6.6c0-5.9 2.8-8.4 6.8-8.4 3.4 0 5.1 2.1 5.4 2.8v-2.5h5v22.7h-5v-2.5c-.3.8-2.1 2.9-5.4 2.9-4.1 0-6.8-2.6-6.8-8.4zm11.9-.4v-5.9c0-2.7-1.4-4-3.2-4-2 0-3.3 1.3-3.3 4v5.8c0 2.8 1.3 4.1 3.3 4.1 1.9.1 3.2-1.2 3.2-4z" fill="#102442"></path><path d="m153.3 12.6h5v3.1c.6-2.5 3.4-3.6 6-3.3v5.2c-4.1-.3-5.7 1.6-5.7 5.2v12.5h-5.3z" fill="#102442"></path><path d="m166.3 26.8v-5.5c0-5.5 3.1-9 8.6-9 5.4 0 8.6 3.2 8.6 8.8v4.4h-11.9v2.5c0 2 1.6 3.4 3.3 3.4 1.8 0 3.2-1 3.2-2.9v-.5h5.3v.2c0 4.2-3.2 7.5-8.6 7.5s-8.5-3.4-8.5-8.9zm11.9-5v-1.1c0-3-1.3-4-3.2-4s-3.3 1-3.3 3.5v1.7h6.5z" fill="#102442"></path><g fill="#00aa6c"><path d="m186.1 26h5.6c0 3.3 1.7 4.7 4.2 4.7 2.3 0 4.1-1.1 4.1-3.4 0-2.4-2.6-3.1-5.5-4.1-3.7-1.3-7.9-2.8-7.9-8.4 0-5.2 3.7-8.4 9.4-8.4 5.5 0 9.3 3.7 9.3 9.5h-5.5c0-3-1.5-4.4-3.9-4.4s-3.7 1.1-3.7 3.3c0 2.4 2.4 3.2 5.2 4.1 3.8 1.2 8.2 2.5 8.2 8.4 0 5.4-3.9 8.6-9.7 8.6-5.9-.1-9.8-3.8-9.8-9.9z"></path><path d="m209.1 12.6h5v2.5c.3-.8 2.1-2.8 5.4-2.8 4.1 0 6.8 2.5 6.8 8.4v6.6c0 5.8-2.7 8.3-6.8 8.3-3.6 0-5-2.3-5-2.3v8.9h-5.4zm11.8 14.2v-5.8c0-2.8-1.3-4.1-3.3-4.1-1.9 0-3.3 1.3-3.3 4.1v5.9c0 2.7 1.4 3.9 3.3 3.9 2 0 3.3-1.2 3.3-4z"></path><path d="m229.6 27.3v-6.6c0-5.9 2.8-8.4 6.8-8.4 3.4 0 5.1 2.1 5.4 2.8v-2.5h5v22.7h-5v-2.5c-.3.8-2.1 2.9-5.4 2.9-4.1 0-6.8-2.6-6.8-8.4zm11.9-.4v-5.9c0-2.7-1.4-4-3.2-4-2 0-3.3 1.3-3.3 4v5.8c0 2.8 1.3 4.1 3.3 4.1 1.9.1 3.2-1.2 3.2-4z"></path><path d="m250.6 26.8v-5.5c0-5.5 3.1-9 8.6-9 5.6 0 8.6 3.4 8.6 9.2v.2h-5.3v-.1c0-3.1-1.3-4.4-3.2-4.4-2 0-3.3 1-3.3 3.9v5.3c0 3 1.1 4.6 3.3 4.6 1.9 0 3.2-1.3 3.2-4.3v-.2h5.3v.2c0 5.7-3 9-8.6 9-5.4 0-8.6-3.4-8.6-8.9z"></path><path d="m270.8 26.8v-5.5c0-5.5 3.1-9 8.6-9 5.4 0 8.6 3.2 8.6 8.8v4.4h-11.9v2.5c0 2 1.6 3.4 3.3 3.4 1.8 0 3.2-1 3.2-2.9v-.5h5.3v.2c0 4.2-3.2 7.5-8.6 7.5s-8.5-3.4-8.5-8.9zm11.9-5v-1.1c0-3-1.3-4-3.2-4s-3.3 1-3.3 3.5v1.7h6.5z"></path><path d="m84.9 8.9-28.1 16.2v16.2l5.6-3.1v-10.1l17-9.8v10l5.5-3.2z"></path><path d="m42.8 33.2 14 8.1v-16.2l-14-8.1z"></path><path d="m42.8 33.2-14 8.1v-16.2l14-8.1z"></path><path d="m.7 8.9 28.1 16.2v16.2l-5.5-3.1v-10.1l-17-9.8v10l-5.6-3.2z"></path></g><path d="m64.6 31.1 12.6-7.3v-1.7l-12.6 7.3z" fill="#102442"></path><path d="m64.6 34.4 12.6-7.3v-1.6l-12.6 7.2z" fill="#102442"></path><path d="m85.6 8.5-14.7-8.5-14 8.1-14.1-8.1-14 8.1-14-8.1-14.8 8.5v17l7 4v-10l15.5 9v10l6.3 3.6 14-8.1 14 8.1 6.3-3.6v-10l15.5-9v10l7-4zm-57.5 31.6-4.1-2.4v-10l-18.5-10.6v10l-4.1-2.4v-14.5l12.9 7.5 13.7 7.9v14.5zm14-7.3-12.6 7.3v-14.5l12.6-7.3zm14 7.3-12.6-7.3v-14.5l12.6 7.3zm28.1-15.4-4.1 2.4v-10l-18.5 10.6v10l-4.1 2.4v-14.5l9.8-5.7 3.8-2.2 12.9-7.5z" fill="#102442"></path><path d="m64.6 36v1.7l12.6-7.3v-1.6l-6.3 3.6z" fill="#102442"></path><path d="m8.4 23.8 12.7 7.3v-1.7l-12.7-7.3z" fill="#102442"></path><path d="m8.4 27.1 12.7 7.3v-1.7l-12.7-7.2z" fill="#102442"></path><path d="m8.4 28.8v1.6l12.7 7.3v-1.7l-6.3-3.6z" fill="#102442"></path></svg>